<svg width="512" height="512" xmlns="http://www.w3.org/2000/svg" xmlns:xlink="http://www.w3.org/1999/xlink"><defs><path id="a" d="M0 0h486v465H0z"/></defs><g fill="none" fill-rule="evenodd"><path d="M0 0h512v512H0z"/><g transform="translate(13 23)"><mask id="b" fill="#fff"><use xlink:href="#a"/></mask><path d="M485.224 176.405c-2.763-7.992-11.973-16.59-89.184-25.59-30.72-3.632-61.218-5.865-73.068-6.675-4.33-11.06-15.641-39.35-28.357-67.427C262.605 5.939 251.016 0 242.655 0c-8.327 0-19.964 5.94-52.236 76.786-12.847 28.118-24.296 56.49-28.7 67.493-11.76.753-41.883 2.863-72.317 6.3C12.853 159.241 3.553 168.208.8 175.946a12.784 12.784 0 0 0-.8 4.443c0 8.794 9.185 24.722 57.393 68.997 22.808 20.952 46.28 40.709 55.407 48.39-2.925 11.511-10.297 41.15-16.458 71.56-7.396 36.233-10.028 57.855-10.028 71.124 0 14.693 3.204 19.152 6.636 21.762 6.906 5.194 19.344 7.068 87.55-31.44 27.123-15.339 53.29-31.586 63.383-37.984 9.986 6.357 35.843 22.367 62.673 37.55 67.347 38.132 80.202 36.709 86.968 32.389 3.964-2.552 7.519-6.954 7.519-22.432 0-13.425-2.632-35.088-9.913-71.125-6.236-30.842-13.73-61.169-16.688-72.802 9.088-7.543 32.207-26.932 54.746-47.466C476.953 205.235 486 189.618 486 180.831c0-1.685-.302-3.043-.776-4.426" fill="#FEE600" mask="url(#b)"/></g><path d="M297.792 206.052c-14.28-1.282-14.248 21.352-14.248 47.555 0 26.18 2.116 47.506 14.642 47.393 13.108-.115 14.814-22.218 14.814-48.422 0-26.138-2.83-45.44-15.208-46.526m-81.609 0C203.773 207.138 201 226.44 201 252.578c0 26.204 1.64 48.307 14.79 48.422 12.533.113 14.617-21.214 14.617-47.393 0-26.203.024-48.837-14.224-47.555" fill="#3C3C3C"/><path d="M409.04 174.309c-30.719-3.633-61.217-5.866-73.067-6.676-4.331-11.062-15.642-39.353-28.357-67.432-32.01-70.779-43.6-76.719-51.96-76.719-8.327 0-19.964 5.94-52.236 76.792-12.847 28.12-24.296 56.494-28.7 67.498-11.76.752-41.883 2.863-72.316 6.3-76.55 8.664-85.85 17.63-88.603 25.37-.466 1.285-.801 2.733-.801 4.443 0 8.795 9.186 24.725 57.393 69.003 22.809 20.953 46.28 40.711 55.408 48.394-2.926 11.511-10.297 41.153-16.46 71.563-7.395 36.236-10.026 57.86-10.026 71.13 0 14.695 3.203 19.154 6.635 21.764 6.906 5.195 19.344 7.068 87.55-31.442 27.123-15.34 53.29-31.589 63.383-37.987 9.986 6.357 35.843 22.368 62.672 37.553 67.347 38.134 80.202 36.71 86.969 32.391 3.963-2.553 7.518-6.954 7.518-22.434 0-13.426-2.632-35.09-9.913-71.13-6.235-30.844-13.73-61.173-16.688-72.807 9.088-7.544 32.207-26.934 54.746-47.47 47.766-43.68 56.813-59.3 56.813-68.086 0-1.686-.302-3.044-.776-4.426-2.763-7.994-11.973-16.593-89.183-25.592z" stroke="#3C3C3C" stroke-width="18"/></g></svg>